<?xml version="1.0" standalone="no"?>
<!DOCTYPE svg PUBLIC "-//W3C//DTD SVG 20010904//EN"
 "http://www.w3.org/TR/2001/REC-SVG-20010904/DTD/svg10.dtd">
<svg version="1.0" xmlns="http://www.w3.org/2000/svg"
 width="700.000000pt" height="700.000000pt" viewBox="0 0 700.000000 700.000000"
 preserveAspectRatio="xMidYMid meet">
<metadata>
Created by potrace 1.14, written by Peter Selinger 2001-2017
</metadata>
<g transform="translate(0.000000,700.000000) scale(0.100000,-0.100000)"
fill="#000000" stroke="none">
<path d="M3289 6576 c-2 -2 -40 -7 -84 -10 -44 -4 -107 -11 -140 -16 -33 -5
-78 -12 -100 -16 -75 -11 -183 -35 -265 -59 -30 -8 -66 -18 -79 -21 -40 -8
-269 -94 -340 -126 -123 -56 -250 -119 -283 -142 -18 -12 -41 -25 -51 -29 -27
-10 -183 -113 -287 -190 -312 -230 -586 -532 -795 -877 -127 -208 -243 -466
-314 -698 -34 -110 -68 -253 -86 -362 -4 -25 -9 -52 -10 -60 -19 -104 -29
-254 -30 -445 0 -254 9 -386 35 -530 5 -27 12 -61 14 -75 87 -487 345 -1021
684 -1420 139 -163 390 -392 549 -501 26 -18 53 -37 58 -41 49 -39 282 -175
395 -230 217 -105 516 -210 668 -234 20 -3 39 -7 42 -9 8 -5 170 -32 240 -41
30 -3 69 -8 85 -11 62 -8 493 -10 578 -2 163 15 376 51 472 79 17 5 41 11 55
14 42 7 190 56 305 101 327 127 651 322 920 555 102 88 293 289 395 416 164
203 355 539 458 804 31 77 97 286 106 330 3 14 12 53 20 87 9 34 18 77 21 95
3 18 10 58 15 88 9 51 12 74 26 185 9 77 12 491 3 580 -39 409 -132 741 -305
1088 -115 231 -276 478 -428 653 -145 168 -381 384 -541 495 -27 18 -54 38
-60 42 -23 18 -145 94 -220 137 -341 197 -780 342 -1135 376 -30 3 -62 8 -70
11 -16 6 -515 14 -521 9z m471 -820 c14 -2 48 -7 75 -11 40 -5 152 -28 245
-50 179 -42 452 -163 630 -279 l80 -52 -1569 -1569 c-863 -863 -1574 -1571
-1579 -1573 -13 -4 -52 54 -124 178 -98 173 -173 361 -223 560 -10 41 -45 220
-50 260 -10 77 -14 442 -5 505 5 33 12 85 15 115 4 30 16 93 26 140 11 47 22
96 25 109 3 13 9 31 13 40 5 9 9 18 9 21 -1 10 41 136 57 175 27 65 121 256
154 313 136 234 321 448 561 645 62 51 253 174 350 225 196 104 428 188 600
217 19 3 42 8 50 10 17 5 71 13 175 25 68 8 436 5 485 -4z m1710 -1131 c0 -2
15 -30 34 -63 120 -213 217 -524 253 -817 16 -122 8 -500 -12 -595 -3 -14 -8
-40 -11 -59 -45 -266 -178 -591 -350 -847 -47 -71 -88 -131 -92 -134 -4 -3
-25 -27 -46 -55 -70 -88 -268 -278 -368 -353 -292 -218 -636 -377 -928 -427
-19 -3 -53 -10 -75 -15 -78 -17 -202 -25 -380 -25 -212 1 -302 9 -470 47 -49
11 -97 21 -105 23 -49 11 -229 73 -309 108 -159 68 -396 207 -389 229 2 5 710
715 1573 1578 l1569 1569 53 -80 c29 -44 53 -82 53 -84z"/>
</g>
</svg>
